<?xml version="1.0" encoding="UTF-8" standalone="no"?>
<svg
   version="1.1"
   viewBox="0 0 272.83883 273.85583"
   id="svg4"
   width="272.83884"
   height="273.85583"
   xmlns:xlink="http://www.w3.org/1999/xlink"
   xmlns="http://www.w3.org/2000/svg"
   xmlns:svg="http://www.w3.org/2000/svg">
  <defs
     id="defs4" />
  <g
     id="g4"
     transform="translate(42.570312,-35.093369)">
    <path
       style="display:inline;mix-blend-mode:normal;fill:#ffffff;stroke:none;stroke-width:5;stroke-linecap:butt;stroke-linejoin:round;stroke-miterlimit:5;stroke-dasharray:none;stroke-opacity:1;paint-order:normal"
       xlink:href="#path1"
       id="path3"
       d="m 16.90625,175.29102 a 5.5783566,5.5783566 0 0 0 -5.255859,3.71289 l -3.9960941,11.26171 c -2.8868173,0.9294 -5.6563881,2.08114 -8.30664065,3.45313 L -11.457031,188.57422 a 5.5783566,5.5783566 0 0 0 -6.341797,1.09375 l -10.394531,10.39453 a 5.5783566,5.5783566 0 0 0 -1.09375,6.33984 l 5.142578,10.80664 c -1.371881,2.65025 -2.523627,5.41809 -3.453125,8.30469 l -11.261719,4 a 5.5783566,5.5783566 0 0 0 -3.710937,5.25586 v 14.69922 a 5.5783566,5.5783566 0 0 0 3.710937,5.25586 l 11.263672,4 c 0.928978,2.88597 2.079746,5.65464 3.451172,8.30469 l -5.142578,10.80664 a 5.5783566,5.5783566 0 0 0 1.09375,6.33984 l 10.394531,10.39453 a 5.5783566,5.5783566 0 0 0 6.341797,1.09375 l 10.80273413,-5.14258 c 2.65054807,1.37187 5.41989987,2.5233 8.30664057,3.45313 l 4.0000003,11.26367 a 5.5783566,5.5783566 0 0 0 5.255859,3.71094 h 14.699219 a 5.5783566,5.5783566 0 0 0 5.255859,-3.71094 l 4,-11.26367 c 2.886462,-0.92966 5.654713,-2.08158 8.304688,-3.45313 l 10.802734,5.14258 a 5.5783566,5.5783566 0 0 0 6.341797,-1.09179 l 10.396484,-10.39454 a 5.5783566,5.5783566 0 0 0 1.09375,-6.34375 L 72.660156,267.0293 c 1.371332,-2.65046 2.522069,-5.41911 3.451172,-8.30469 l 11.263672,-4 a 5.5783566,5.5783566 0 0 0 3.710937,-5.25586 V 234.76953 A 5.5783566,5.5783566 0 0 0 87.375,229.51367 l -11.261719,-4 c -0.929417,-2.88715 -2.083154,-5.65552 -3.455078,-8.30664 l 5.142578,-10.80469 a 5.5783566,5.5783566 0 0 0 -1.09375,-6.33984 L 66.3125,189.66797 a 5.5783566,5.5783566 0 0 0 -6.341797,-1.09375 l -10.802734,5.14258 c -2.650324,-1.37146 -5.418528,-2.52209 -8.304688,-3.45118 l -4,-11.26367 a 5.5783566,5.5783566 0 0 0 -5.255859,-3.71093 z m 7.351562,47.90625 c 10.517063,0 18.921876,8.4049 18.921875,18.92187 0,10.51696 -8.404816,18.92188 -18.921875,18.92188 -10.516927,0 -18.9218745,-8.4053 -18.9218745,-18.92188 0,-10.51696 8.4048625,-18.92187 18.9218745,-18.92187 z" />
    <path
       d="m 85.50798,249.46961 v -14.7001 l -13.80044,-4.90003 c -1.16049,-4.48911 -2.95013,-8.72461 -5.25536,-12.62085 l 0.0185,-0.019 6.29396,-13.22324 -10.3948,-10.39472 -13.22271,6.29361 -0.019,0.019 c -3.89604,-2.30521 -8.13245,-4.09485 -12.62069,-5.25473 L 31.60736,180.86917 H 16.9072 l -4.900072,13.80067 c -4.4885382,1.15959 -8.7246484,2.94924 -12.62089822,5.25534 l -0.019,-0.0195 -13.22328978,-6.29363 -10.39479,10.39471 6.29365,13.22326 0.02,0.019 c -2.30579,3.89624 -4.09544,8.13264 -5.25535,12.62086 l -13.800461,4.89962 v 14.70011 l 13.800751,4.90003 c 1.15961,4.48852 2.94984,8.72461 5.25537,12.62084 l -0.02,0.019 -6.29364,13.22265 10.39477,10.39472 13.22330978,-6.29392 0.019,-0.0185 c 3.89625982,2.30522 8.13265002,4.09456 12.62090822,5.25534 l 4.899772,13.80037 h 14.70016 l 4.90006,-13.80037 c 4.48853,-1.16047 8.72466,-2.95012 12.62091,-5.25534 l 0.019,0.0185 13.22272,6.29393 10.39479,-10.39472 -6.29395,-13.22266 -0.0185,-0.019 c 2.30523,-3.89623 4.09458,-8.13262 5.25537,-12.62084 z m -61.25072,17.1501 c -13.531331,0 -24.50025028,-10.96918 -24.50025028,-24.50014 0,-13.53127 10.96891928,-24.50016 24.50025028,-24.50016 13.53137,0 24.5003,10.96889 24.5003,24.50016 0,13.53126 -10.96893,24.50014 -24.5003,24.50014 z"
       id="path1"
       style="display:inline;mix-blend-mode:normal;fill:#4d4d4d;stroke:none;stroke-width:5;stroke-linecap:butt;stroke-linejoin:round;stroke-miterlimit:5;stroke-dasharray:none;stroke-opacity:1;paint-order:normal" />
    <path
       style="font-style:italic;font-weight:bold;font-size:100.424px;line-height:1.25;font-family:Arial;-inkscape-font-specification:'Arial, Bold Italic';display:inline;fill:#ffffff;stroke-width:0.999983"
       xlink:href="#text62"
       id="path2"
       d="m 93.212891,242.62109 a 5.7649431,5.7649431 0 0 0 -5.228516,3.33594 l -3.427734,7.38086 a 5.7649431,5.7649431 0 0 0 5.228515,8.19141 h 10.230474 l -20.615239,10.30468 a 5.7649431,5.7649431 0 0 0 -2.642579,2.71289 l -2.992187,6.39454 a 5.7649431,5.7649431 0 0 0 5.220703,8.20703 h 58.708982 a 5.7649431,5.7649431 0 0 0 0.008,0.004 h 14.56836 a 5.7649431,5.7649431 0 0 0 5.31055,-3.52343 l 3.62305,-8.58985 8.06836,-3.50195 14.63672,14.01562 a 5.7649431,5.7649431 0 0 0 3.98632,1.59961 h 16.39454 a 5.7649431,5.7649431 0 0 0 3.89453,-10.01367 L 191.51562,263.86719 215,253.67578 A 5.7649431,5.7649431 0 0 0 212.70508,242.625 h -19.42383 a 5.7649431,5.7649431 0 0 0 -2.39258,0.51953 l -19.17383,8.75 0.53516,-1.27344 a 5.7649431,5.7649431 0 0 0 -5.31445,-7.99609 h -12.9336 a 5.7649431,5.7649431 0 0 0 -0.0156,-0.004 z m 45.062499,24.53516 -1.18555,2.81836 h -4.37304 z" />
    <path
       id="text62"
       style="font-style:italic;font-weight:bold;font-size:100.424px;line-height:1.25;font-family:Arial;-inkscape-font-specification:'Arial, Bold Italic';fill:#4d4d4d;stroke-width:0.999983"
       d="m 78.986741,283.38408 2.991252,-6.39363 42.461207,-21.22422 H 89.784435 l 3.428998,-7.38233 h 60.773507 l -2.55351,5.63562 -42.82599,21.71857 h 37.28123 l -3.57491,7.64599 z m 58.717269,0.005 14.71167,-35.00021 h 14.51939 l -6.25008,14.8739 32.59648,-14.8739 h 19.42325 l -31.63491,13.72791 23.22137,21.2723 H 187.8968 l -17.404,-16.66449 -13.70207,5.94478 -4.51927,10.71971 z" />
  </g>
  <g
     id="g2"
     transform="matrix(1.75,0,0,1.75,72.531668,5.7233564)"
     style="fill:#1a1a1a;stroke-width:0.571429">
    <path
       style="fill:#ffffff;fill-opacity:1;stroke-width:0.571429"
       xlink:href="#path1948"
       id="path4"
       d="m 54.902344,-3.2695313 c -4.759887,0.022117 -9.308308,0.4243609 -13.367188,1.1425782 -6.023525,1.0643787 -10.208782,2.79202115 -12.875,5.9179687 C 25.993642,6.917311 25.429688,10.872358 25.429687,15.03125 V 25.25 a 3.2702383,3.2702383 0 0 0 0.136719,0.136719 h -6.929687 c -9.1027203,0 -17.4881462,5.90861 -19.9296877,16.101562 -2.5283382,10.490662 -2.6451922,17.805698 0,28.777344 1.04982945,4.371349 2.8556738,8.321674 5.7578124,11.292969 2.9025469,2.971712 6.9845323,4.804686 11.6718753,4.804687 h 9.21875 A 3.2702383,3.2702383 0 0 0 28.625,83.09375 v -12.25 c 0,-6.963759 6.25913,-13.386717 13.480469,-13.386719 h 26.78125 c 9.249834,0 16.675785,-7.674864 16.675781,-16.894531 V 15.03125 c 0,-9.1053566 -7.586696,-15.73676729 -16.138672,-17.1621094 -4.809142,-0.8005431 -9.761621,-1.1607889 -14.521484,-1.1386719 z M 40.417969,11.488281 c 0.960256,0 1.761719,0.773547 1.761718,1.855469 0,1.065702 -0.78475,1.824219 -1.761718,1.824219 -0.993302,-10e-7 -1.761719,-0.750836 -1.761719,-1.824219 0,-1.089577 0.785071,-1.855469 1.761719,-1.855469 z" />
    <path
       style="fill:#1a1a1a;fill-opacity:1;stroke-width:0.571429"
       d="M 54.918785,9.1927421e-4 C 50.335132,0.02221727 45.957846,0.41313697 42.106285,1.0946693 30.760069,3.0991731 28.700036,7.2947714 28.700035,15.032169 v 10.21875 h 26.8125 v 3.40625 h -26.8125 -10.0625 c -7.792459,0 -14.6157588,4.683717 -16.7499998,13.59375 -2.46181998,10.212966 -2.57101508,16.586023 0,27.25 1.9059283,7.937852 6.4575432,13.593748 14.2499998,13.59375 h 9.21875 v -12.25 c 0,-8.849902 7.657144,-16.656248 16.75,-16.65625 h 26.78125 c 7.454951,0 13.406253,-6.138164 13.40625,-13.625 v -25.53125 c 0,-7.2663386 -6.12998,-12.7247771 -13.40625,-13.9374997 C 64.281548,0.32794397 59.502438,-0.02037903 54.918785,9.1927421e-4 Z m -14.5,8.21875012579 c 2.769547,0 5.03125,2.2986456 5.03125,5.1249996 -2e-6,2.816336 -2.261703,5.09375 -5.03125,5.09375 -2.779476,-1e-6 -5.03125,-2.277415 -5.03125,-5.09375 -10e-7,-2.826353 2.251774,-5.1249996 5.03125,-5.1249996 z"
       id="path1948" />
    <path
       style="opacity:1;fill:#ffffff;fill-opacity:1;stroke-width:0.571429"
       xlink:href="#path1950"
       id="path5"
       d="M 85.636719,25.333984 A 3.3233349,3.3233349 0 0 0 82.314453,28.65625 V 40.5625 c 0,7.352572 -6.432286,13.677734 -13.427734,13.677734 h -26.78125 c -9.231852,0 -16.728515,7.77023 -16.728516,16.947266 v 25.53125 c 0,4.59636 2.139447,8.49874 5.134766,11.2168 2.995318,2.71805 6.779101,4.45532 10.65625,5.5957 8.934423,2.62707 17.944908,3.10762 28.642578,0.004 3.666816,-1.06167 7.442125,-2.65779 10.5,-5.33399 3.057875,-2.6762 5.304689,-6.66086 5.304687,-11.48242 V 86.5 a 3.3233349,3.3233349 0 0 0 -0.08398,-0.08398 h 10.167969 c 4.668851,0 8.566671,-1.902529 11.132811,-4.896485 2.56527,-2.992933 4.02888,-6.763866 5.42578,-10.96875 l 0.002,-0.0039 c 3.00873,-9.030046 2.83799,-17.970889 0.0703,-29.097656 v -0.002 c -1.03512,-4.169018 -2.55423,-8.056187 -5.22852,-11.097657 -2.67468,-3.041916 -6.67261,-5.015625 -11.402341,-5.015625 z m -15.0625,71.300782 c 0.964303,10e-7 1.708984,0.726407 1.708984,1.771484 -10e-7,1.061377 -0.761612,1.80273 -1.708984,1.80273 -0.930882,0 -1.708985,-0.749135 -1.708985,-1.80273 10e-7,-1.037273 0.761116,-1.771484 1.708985,-1.771484 z" />
    <path
       style="fill:#1a1a1a;fill-opacity:1;stroke-width:0.571429"
       d="m 85.637535,28.657169 v 11.90625 c 0,9.230755 -7.825895,16.999999 -16.75,17 h -26.78125 c -7.335833,0 -13.406249,6.278483 -13.40625,13.625 v 25.531247 c 0,7.266344 6.318588,11.540324 13.40625,13.625004 8.487331,2.49561 16.626237,2.94663 26.78125,0 6.750155,-1.95439 13.406253,-5.88761 13.40625,-13.625004 V 86.500919 h -26.78125 v -3.40625 h 26.78125 13.406254 c 7.792461,0 10.696251,-5.435408 13.406241,-13.59375 2.79933,-8.398886 2.68022,-16.475776 0,-27.25 -1.92578,-7.757441 -5.60387,-13.59375 -13.406241,-13.59375 z m -15.0625,64.65625 c 2.779478,3e-6 5.03125,2.277417 5.03125,5.093747 -2e-6,2.826354 -2.251775,5.125004 -5.03125,5.125004 -2.76955,0 -5.03125,-2.29865 -5.03125,-5.125004 2e-6,-2.81633 2.261697,-5.093747 5.03125,-5.093747 z"
       id="path1950" />
  </g>
  <g
     id="g33"
     style="display:inline"
     transform="translate(-0.6850285)">
    <path
       style="opacity:1;fill:#ffffff;stroke:#ffffff;stroke-width:5;stroke-miterlimit:5;stroke-dasharray:none;paint-order:markers stroke fill"
       d="m 65.717891,225.78562 c -1.532537,-0.13634 -3.651114,-0.6353 -5.03985,-1.18696 -6.083714,-2.41671 -10.254694,-7.38312 -11.650117,-13.87186 -0.420954,-1.95744 -0.420954,-5.47439 0,-7.43183 1.697293,-7.89244 7.659949,-13.58719 15.590086,-14.88961 0.952092,-0.15637 1.856409,-0.19268 3.558023,-0.14286 1.956059,0.0573 2.501836,0.1237 3.826354,0.46567 3.666366,0.9466 6.441374,2.52657 8.990203,5.11865 3.206971,3.26139 5.085903,7.5784 5.320636,12.22463 0.462678,9.15807 -5.602283,17.22373 -14.516149,19.30471 -1.087298,0.25384 -3.872261,0.58238 -4.560478,0.538 -0.147625,-0.01 -0.831044,-0.0674 -1.518708,-0.12854 z"
       id="path25" />
    <path
       style="opacity:1;fill:#ffffff;stroke:#ffffff;stroke-width:5;stroke-miterlimit:5;stroke-dasharray:none;paint-order:markers stroke fill"
       d="m 91.538893,158.1465 c -1.729171,-0.87922 -4.265307,-1.93796 -6.371221,-2.65975 l -1.025165,-0.35137 -0.938171,-2.65732 c -0.515993,-1.46153 -0.952598,-2.69905 -0.970233,-2.75003 -0.01763,-0.051 0.216391,0.12199 0.520057,0.3844 1.245069,1.0759 2.971159,2.29427 4.334113,3.05924 1.746082,0.98 3.923818,1.9163 5.696939,2.44934 1.026265,0.30852 2.618073,0.68872 3.357252,0.80187 0.282094,0.0432 0.512235,0.0956 0.511425,0.11637 -0.0017,0.0428 -4.100943,2.00068 -4.218814,2.01494 -0.04193,0.005 -0.445212,-0.17839 -0.896182,-0.40769 z"
       id="path26" />
    <path
       style="opacity:1;fill:#ffffff;stroke:#ffffff;stroke-width:5.00001;stroke-miterlimit:5;stroke-dasharray:none;paint-order:markers stroke fill"
       d="m 114.73745,159.72081 -2.85899,-2.85906 h 2.86488 2.86489 v 2.85906 c 0,1.57248 -0.003,2.85906 -0.006,2.85906 -0.003,0 -1.29244,-1.28658 -2.86488,-2.85906 z"
       id="path27" />
    <path
       style="opacity:1;fill:#ffffff;stroke:#ffffff;stroke-width:4.99999;stroke-miterlimit:5;stroke-dasharray:none;paint-order:markers stroke fill"
       d="m 121.7201,191.24426 -2.33222,-0.82991 -0.24027,-0.70352 c -0.85987,-2.51767 -1.75111,-4.66105 -2.87708,-6.91915 l -0.34076,-0.6834 0.93666,-1.96754 c 0.51517,-1.08214 0.93903,-1.96518 0.94191,-1.9623 0.003,0.003 0.0354,0.21465 0.0723,0.47058 0.50137,3.47722 1.77002,6.907 3.68614,9.9655 0.69993,1.11722 1.45911,2.1609 2.28992,3.14806 0.2511,0.29835 0.26312,0.31515 0.22399,0.31309 -0.0156,-8.3e-4 -1.0779,-0.37496 -2.36062,-0.83141 z"
       id="path28" />
    <path
       style="opacity:1;fill:#ffffff;stroke:#ffffff;stroke-width:5;stroke-miterlimit:5;stroke-dasharray:none;paint-order:markers stroke fill"
       d="m 134.34787,203.97474 v -3.92072 l 1.26321,0.63056 c 3.64663,1.82028 7.18903,3.11382 12.17381,4.4454 3.06657,0.81917 5.95204,1.44784 8.83132,1.92409 1.0161,0.16808 2.51133,0.39245 2.76194,0.41446 0.0672,0.006 -5.2403,0.0217 -11.79448,0.035 -11.29837,0.023 -11.93409,0.0284 -12.25206,0.10518 -0.18445,0.0445 -0.48125,0.12724 -0.65955,0.18384 l -0.32419,0.10291 z"
       id="path29" />
    <path
       style="opacity:1;fill:#ffffff;stroke:#ffffff;stroke-width:4.99999;stroke-miterlimit:5;stroke-dasharray:none;paint-order:markers stroke fill"
       d="m 119.56705,239.55398 c -0.0993,-0.21239 -0.95586,-2.01402 -1.9035,-4.00361 l -1.72299,-3.61744 0.39467,-0.7885 c 1.00869,-2.01527 1.92034,-4.20235 2.74789,-6.59233 l 0.31436,-0.90786 3.89429,-1.38304 c 2.14187,-0.76068 3.90714,-1.3833 3.92283,-1.3836 0.0157,-3e-4 0.0392,0.088 0.0522,0.19623 0.19435,1.61341 0.6798,2.66595 1.69676,3.67889 0.85746,0.85407 1.8492,1.37691 3.07147,1.61929 0.34124,0.0677 0.80152,0.0748 5.73603,0.0889 l 5.36502,0.0154 -10.48565,5.24788 c -6.84949,3.42805 -10.58476,5.31929 -10.77146,5.45377 -0.40525,0.29192 -0.97542,0.85285 -1.28569,1.26484 -0.14586,0.19368 -0.39583,0.60981 -0.55548,0.92474 l -0.29029,0.57259 z"
       id="path30" />
    <path
       style="opacity:1;fill:#ffffff;stroke:#ffffff;stroke-width:4.99999;stroke-miterlimit:5;stroke-dasharray:none;paint-order:markers stroke fill"
       d="m 176.34667,234.70476 c 0.95266,-0.49102 5.1366,-2.60347 5.14326,-2.5968 0.004,0.004 -0.253,0.62872 -0.57173,1.38767 l -0.5795,1.3799 -2.16163,-2e-5 -2.16162,-2e-5 z"
       id="path31" />
    <path
       style="opacity:1;fill:#ffffff;stroke:#ffffff;stroke-width:5.00001;stroke-miterlimit:5;stroke-dasharray:none;paint-order:markers stroke fill"
       d="m 196.18334,181.02451 c -0.62829,-0.13078 -1.14296,-0.41144 -1.5631,-0.85239 -0.57865,-0.60731 -0.86484,-1.34858 -0.86484,-2.24001 0,-1.11265 0.49354,-2.06006 1.36406,-2.6185 0.75595,-0.48494 1.74687,-0.59305 2.6345,-0.28742 1.45565,0.5012 2.24364,2.12458 1.83334,3.77693 -0.13505,0.54389 -0.40029,1.01605 -0.7929,1.41149 -0.3784,0.38113 -0.81054,0.62839 -1.34665,0.77052 -0.29456,0.0781 -0.97637,0.0993 -1.26441,0.0394 z"
       id="path32" />
    <path
       style="opacity:1;fill:#ffffff;stroke:#ffffff;stroke-width:5;stroke-miterlimit:5;stroke-dasharray:none;paint-order:markers stroke fill"
       d="m 143.62757,32.243689 c -1.29304,-0.124599 -2.32337,-1.014063 -2.64531,-2.283645 -0.13619,-0.537046 -0.13872,-1.239417 -0.006,-1.75432 0.27911,-1.085495 0.99482,-1.877339 1.99897,-2.2116 0.97509,-0.324588 2.05729,-0.135729 2.85262,0.497822 0.94052,0.749202 1.37542,2.020571 1.12356,3.284561 -0.21989,1.103623 -0.97398,1.973759 -2.00995,2.319267 -0.42264,0.140956 -0.86678,0.190968 -1.31357,0.147915 z"
       id="path33" />
  </g>
</svg>
